# xmcd
#
# Track frame offsets: 
#        150
#        14548
#        30525
#        52015
#        65870
#        87318
#        104688
#        124555
#        141568
#        158165
#        173748
#        193220
#        208183
#        226540
#        251633
#
# Disc length: 3443 seconds
#
# Revision: 10
# Processed by: cddbd v1.5.2PL0 Copyright (c) Steve Scherf et al.
# Submitted via: ExactAudioCopy v0.95b3
#
DISCID=db0d710f
DTITLE=Fun Lovin' Criminals - Come Find Yourself
DYEAR=1996
DGENRE=Alt. Rock
TTITLE0=The Fun Lovin' Criminal
TTITLE1=Passive/Aggressive
TTITLE2=The Grave And The Constant
TTITLE3=Scooby Snacks
TTITLE4=Smoke 'Em
TTITLE5=Bombin' The L
TTITLE6=I Can't Get With That
TTITLE7=King Of New York
TTITLE8=We Have All The Time In The World
TTITLE9=Bear Hug
TTITLE10=Come Find Yourself
TTITLE11=Crime And Punishment
TTITLE12=Methadonia
TTITLE13=I Can't Get With That (Schmoove Version)
TTITLE14=Coney Island Girl
EXTD=YEAR: 1996
EXTT0=
EXTT1=
EXTT2=
EXTT3=
EXTT4=
EXTT5=
EXTT6=
EXTT7=
EXTT8=
EXTT9=
EXTT10=
EXTT11=
EXTT12=
EXTT13=
EXTT14=
PLAYORDER=
